<?xml version="1.0"?>
<svg xmlns:rdf="http://www.w3.org/1999/02/22-rdf-syntax-ns#" xmlns="http://www.w3.org/2000/svg" xmlns:sodipodi="http://inkscape.sourceforge.net/DTD/sodipodi-0.dtd" xmlns:cc="http://web.resource.org/cc/" xmlns:xlink="http://www.w3.org/1999/xlink" xmlns:dc="http://purl.org/dc/elements/1.1/" xmlns:svg="http://www.w3.org/2000/svg" id="svg2" style="enable-background:new 45.43 159.724 489.105 495.538" xml:space="preserve" viewBox="45.43 159.724 489.105 495.538" sodipodi:version="0.32" version="1.1" y="0px" x="0px" sodipodi:docname="emule.svg" sodipodi:docbase="/mnt/trabalho/logos/meus/emule">
<sodipodi:namedview id="base" bordercolor="#666666" borderopacity="1.0" pagecolor="#ffffff">
	</sodipodi:namedview>
<g id="g7216" transform="matrix(19.714 0 0 19.714 -6671.9 -9724.2)">
	<path id="path2088" fill="#FFCA88" d="m350.08 509.7c-0.427-0.005-1.106 0.595-1.491 0.932-0.433 0.379-0.507 0.734-0.745 1.211-0.22 0.44-0.186 0.892-0.186 1.398 0 0.559 0.167 0.929 0.28 1.305 0.171 0.57 0.482 0.724 0.745 1.025 0.124 0.142 0.933 0.224 1.118 0.28 0.439 0.132 0.751 0.319 1.118 0.466 0.463 0.185 0.571 0.382 0.932 0.652 0.492 0.369 0.435 0.23 1.025 0.466 0.815 0.326 1-0.695 1.211-1.118 0.267-0.533 0.093-1.464 0.093-2.05 0-0.602-0.125-0.976-0.28-1.491-0.139-0.464-0.661-0.992-0.932-1.398-0.268-0.402-0.759-0.814-1.025-1.118-0.301-0.344-0.907-0.375-1.211-0.466-0.21-0.05-0.43-0.05-0.65-0.08z"/>
	<path id="path7212" fill-opacity=".0776" d="m350.08 509.7c-0.427-0.005-1.106 0.595-1.491 0.932-0.433 0.379-0.507 0.734-0.745 1.211-0.22 0.44-0.186 0.892-0.186 1.398 0 0.559 0.167 0.929 0.28 1.305 0.171 0.57 0.482 0.724 0.745 1.025 0.124 0.142 0.933 0.224 1.118 0.28 0.439 0.132 0.751 0.319 1.118 0.466 0.463 0.185 0.571 0.382 0.932 0.652 0.492 0.369 0.435 0.23 1.025 0.466 0.815 0.326 1-0.695 1.211-1.118 0.267-0.533 0.093-1.464 0.093-2.05 0-0.602-0.125-0.976-0.28-1.491-0.139-0.464-0.661-0.992-0.932-1.398-0.268-0.402-0.759-0.814-1.025-1.118-0.301-0.344-0.907-0.375-1.211-0.466-0.21-0.05-0.43-0.05-0.65-0.08z"/>
	<path id="path2826" fill="#FFCA88" d="m347.37 515.58c-0.427-0.005-1.106 0.595-1.491 0.932-0.433 0.379-0.507 0.734-0.745 1.211-0.22 0.44-0.186 0.891-0.186 1.398 0 0.559 0.167 0.929 0.28 1.305 0.171 0.57 0.482 0.724 0.745 1.025 0.124 0.142 0.933 0.224 1.118 0.28 0.439 0.132 0.751 0.319 1.118 0.466 0.463 0.185 0.571 0.382 0.932 0.652 0.492 0.369 0.435 0.23 1.025 0.466 0.815 0.326 1-0.695 1.211-1.118 0.267-0.533 0.093-1.464 0.093-2.05 0-0.602-0.125-0.976-0.28-1.491-0.139-0.464-0.661-0.992-0.932-1.398-0.268-0.402-0.759-0.814-1.025-1.118-0.301-0.344-0.907-0.375-1.211-0.466-0.22-0.05-0.45-0.05-0.66-0.08z"/>
	<path id="path2834" fill="#FFCA88" d="m364.88 517.82c-0.062-0.231-0.279-0.76-0.43-1.1-0.149-0.336-0.325-0.666-0.484-0.99-0.148-0.303-0.294-0.387-0.538-0.605-0.263-0.236-0.472-0.391-0.753-0.55-0.254-0.144-0.55-0.27-0.753-0.385-0.2-0.114-0.585-0.152-0.806-0.22-0.236-0.072-0.612 0-0.86 0h-1.666c-0.3 0-0.535 0.054-0.806 0.11-0.298 0.061-0.543 0.167-0.806 0.275-0.287 0.117-0.513 0.314-0.699 0.44-0.263 0.179-0.432 0.366-0.699 0.605-0.247 0.221-0.41 0.492-0.591 0.77-0.188 0.288-0.253 0.565-0.376 0.88-0.159 0.406-0.176 0.829-0.215 1.265-0.038 0.431 0 0.887 0 1.32 0 0.44 0.038 0.821 0.108 1.21 0.099 0.555 0.278 1.042 0.376 1.595 0.068 0.384 0.273 0.701 0.43 0.99 0.169 0.312 0.67 0.607 0.914 0.825 0.349 0.312 0.733 0.49 1.129 0.715 0.436 0.248 1.027 0.296 1.505 0.385 0.556 0.103 1.083 0.053 1.613-0.055 0.512-0.105 1.079-0.524 1.559-0.77 0.589-0.301 1.091-0.706 1.613-1.045 0.447-0.291 0.601-0.749 0.806-1.21 0.281-0.633 0.364-1.32 0.591-1.925 0.148-0.395 0.084-0.979 0.161-1.375 0.052-0.265 0.054-0.534 0.054-0.825 0-0.035-0.154-0.263-0.161-0.275"/>
	<path id="path6484" fill-opacity=".0776" d="m364.88 517.82c-0.062-0.231-0.279-0.76-0.43-1.1-0.149-0.336-0.325-0.666-0.484-0.99-0.148-0.303-0.294-0.387-0.538-0.605-0.263-0.236-0.472-0.391-0.753-0.55-0.254-0.144-0.55-0.27-0.753-0.385-0.2-0.114-0.585-0.152-0.806-0.22-0.236-0.072-0.612 0-0.86 0h-1.666c-0.3 0-0.535 0.054-0.806 0.11-0.298 0.061-0.543 0.167-0.806 0.275-0.287 0.117-0.513 0.314-0.699 0.44-0.263 0.179-0.432 0.366-0.699 0.605-0.247 0.221-0.41 0.492-0.591 0.77-0.188 0.288-0.253 0.565-0.376 0.88-0.159 0.406-0.176 0.829-0.215 1.265-0.038 0.431 0 0.887 0 1.32 0 0.44 0.038 0.821 0.108 1.21 0.099 0.555 0.278 1.042 0.376 1.595 0.068 0.384 0.273 0.701 0.43 0.99 0.169 0.312 0.67 0.607 0.914 0.825 0.349 0.312 0.733 0.49 1.129 0.715 0.436 0.248 1.027 0.296 1.505 0.385 0.556 0.103 1.083 0.053 1.613-0.055 0.512-0.105 1.079-0.524 1.559-0.77 0.589-0.301 1.091-0.706 1.613-1.045 0.447-0.291 0.601-0.749 0.806-1.21 0.281-0.633 0.364-1.32 0.591-1.925 0.148-0.395 0.084-0.979 0.161-1.375 0.052-0.265 0.054-0.534 0.054-0.825 0-0.035-0.154-0.263-0.161-0.275"/>
	<path id="path7214" fill-opacity=".0776" d="m347.37 515.58c-0.427-0.005-1.106 0.595-1.491 0.932-0.433 0.379-0.507 0.734-0.745 1.211-0.22 0.44-0.186 0.891-0.186 1.398 0 0.559 0.167 0.929 0.28 1.305 0.171 0.57 0.482 0.724 0.745 1.025 0.124 0.142 0.933 0.224 1.118 0.28 0.439 0.132 0.751 0.319 1.118 0.466 0.463 0.185 0.571 0.382 0.932 0.652 0.492 0.369 0.435 0.23 1.025 0.466 0.815 0.326 1-0.695 1.211-1.118 0.267-0.533 0.093-1.464 0.093-2.05 0-0.602-0.125-0.976-0.28-1.491-0.139-0.464-0.661-0.992-0.932-1.398-0.268-0.402-0.759-0.814-1.025-1.118-0.301-0.344-0.907-0.375-1.211-0.466-0.22-0.05-0.45-0.05-0.66-0.08z"/>
	<path id="path1321" fill="#D28C4C" d="m340.85 522.75c0.06-2.044 0.301-4.069 0.536-4.499s0.389-2.603 0.342-4.829c-0.047-2.225 0.189-3.877 0.523-3.67 0.335 0.207 0.608-0.654 0.608-1.912 0-2.97 2.721-6.411 5.069-6.411 1.441 0 1.74 0.33 1.417 1.565-0.49 1.875-0.403 1.886 3.174 0.391 2.992-1.25 10.684-1.619 10.684-0.512 0 1.153-2.673 3.137-6.517 4.837l-3.721 1.646 2.807 1.905c1.544 1.048 3.511 1.905 4.372 1.905 2.717 0 5.407 3.457 5.407 6.95 0 5.252-5.192 7.874-10.66 5.383-1.69-0.77-2.193-0.77-2.449 0-0.217 0.652-2.185 0.969-6.012 0.969h-5.689l0.11-3.73zm23.29-0.61c0.724-1.588 0.646-2.511-0.395-4.695-1.342-2.815-3.554-3.527-6.016-1.935-0.915 0.591-0.699 0.761 0.978 0.77 2.52 0.014 2.761 0.82 0.643 2.143-1.179 0.736-1.603 0.735-1.936-0.007-0.235-0.522-0.357-0.246-0.271 0.615s-0.105 1.981-0.424 2.489c-0.883 1.407 0.906 2.089 2.368 0.904 0.742-0.602 1.058-0.659 0.743-0.134-0.54 0.9 0.48 1.645 2.414 1.766 0.56 0.04 1.41-0.82 1.91-1.91zm-16.59-4.28c0-0.43-0.352-0.782-0.782-0.782s-0.782 0.352-0.782 0.782c0 0.43 0.352 0.782 0.782 0.782s0.78-0.35 0.78-0.78zm5.21-3.53c0.593-1.278 0.634-2.116 0.121-2.434-1.161-0.718-3.27 1.732-2.721 3.161 0.68 1.76 1.56 1.52 2.6-0.73z"/>
	<path id="path1319" fill="#C77732" d="m340.85 522.67c0.059-2.003 0.299-3.995 0.534-4.425s0.389-2.603 0.342-4.829c-0.047-2.225 0.189-3.877 0.523-3.67 0.335 0.207 0.608-0.654 0.608-1.912 0-2.97 2.721-6.411 5.069-6.411 1.441 0 1.74 0.33 1.417 1.565-0.49 1.875-0.403 1.886 3.174 0.391 2.992-1.25 10.684-1.619 10.684-0.512 0 1.153-2.673 3.137-6.517 4.837l-3.721 1.646 2.807 1.905c1.544 1.048 3.511 1.905 4.372 1.905 2.717 0 5.407 3.457 5.407 6.95 0 5.216-5.191 7.874-10.582 5.418-1.36-0.619-2.228-0.667-2.58-0.141-0.292 0.436-3.031 0.823-6.087 0.86l-5.556 0.067 0.12-3.65zm18.34 0.86c-0.966-1.231-0.94-1.265 0.252-0.331 0.729 0.571 2.138 0.923 3.13 0.782 1.458-0.207 1.85-0.811 2.044-3.157 0.319-3.842-0.869-5.853-3.842-6.506-3.246-0.713-4.603 0.741-5.061 5.422-0.435 4.437-0.079 5.158 2.545 5.158 1.8 0.01 1.89-0.13 0.93-1.36zm-1.07-6.46c-0.266-0.43 0.045-0.782 0.69-0.782 0.646 0 1.391 0.352 1.657 0.782s-0.045 0.782-0.69 0.782c-0.65 0.01-1.4-0.35-1.66-0.78zm-8.01 2.82c-0.388-2.028-2.899-5.167-4.135-5.167-1.113 0-1.865 3.909-0.932 4.843 1.161 1.161 4.379 2.775 4.95 2.483 0.26-0.12 0.31-1.1 0.11-2.15zm3.09-3.48c-1.385-0.879-0.295-3.467 1.216-2.887 0.979 0.376 1.013 0.249 0.194-0.737-1.23-1.482-3.448-1.538-4.627-0.117-1.108 1.336-0.382 3.417 1.354 3.876 2.21 0.59 2.92 0.54 1.87-0.13zm-4.86-7.29c0-0.502 0.221-0.692 0.49-0.422 0.526 0.526 4.618-1.337 6.552-2.982 0.646-0.549 1.878-1.166 2.739-1.371s0.156-0.368-1.565-0.361c-1.721 0.006-4.186 0.532-5.477 1.169-4.331 2.136-6.532 4.881-3.912 4.881 0.64-0.01 1.17-0.42 1.17-0.92zm-2.25-5.15c0.973-1.241 0.946-1.269-0.295-0.295-0.753 0.591-1.369 1.207-1.369 1.369-0.01 0.64 0.63 0.22 1.66-1.08z"/>
	<path id="path1317" fill="#B4682A" d="m340.85 522.75c-0.024-3.344 1.292-6.597 0.831-9.955-0.012-1.442 0.337-2.904 1.104-4.133 0.07-2.124 0.682-4.343 2.309-5.811 0.91-0.876 2.13-1.498 3.414-1.481 1.392 0.361 0.298 3.589 2.289 2.691 2.867-1.311 6.036-1.861 9.175-1.821 1.143-0.334 3.516 0.193 2.593 1.784-0.931 1.426-2.657 1.946-4.049 2.791-1.816 0.921-3.684 1.731-5.551 2.541 2.438 1.624 4.865 3.67 7.91 3.905 4.482 1.357 6.267 7.847 3.001 11.247-2.311 2.436-6.281 2.462-9.081 0.893-1.508-0.946-2.723 0.593-3.985 0.964-1.654 0.033-2.992-1.396-4.683-1.141-1.482 0.206-2.72 1.829-4.321 1.09-1.44-0.7-0.92-2.32-0.95-3.56zm18.34 0.78c0.315-1.06 1.683 0.828 2.514 0.523 1.579 0.177 2.922-1.156 2.868-2.71 0.174-1.554 0.06-3.176-0.431-4.658-1.085-1.923-3.501-2.746-5.606-2.58-1.801 0.337-3.023 2.148-4.902 2.189-1.679-0.164-1.485-2.756 0.179-2.705 0.915 0.046 1.357-0.775 0.388-1.217-1.109-0.963-3.006-0.985-3.971 0.197-0.946 0.91-1.956-0.499-1.128-1.281-0.43-1.553-2.907 0.371-1.428 1.293 0.699 1.47-1.277 2.167-2.253 1.271-1.318 0.156-1.444 1.835-1.766 2.861-0.348 1.653 0.24 3.601 1.827 4.397 1.268 0.708 2.716 1.227 4.177 1.257 1.551-0.122 3.029-1.897 2.257-3.409-0.84-1.369 0.683-2.834 1.941-1.765 1.392 0.6 2.394 2.278 1.756 3.759-0.353 1.283-0.237 3.048 1.14 3.674 0.78 0.77 3.49 0.43 2.43-1.08zm-1.07-6.46c-0.054-2.124 3.467 0.561 1.206 0.741-0.5-0.05-0.88-0.4-1.21-0.74zm-5.34-8.93c2.386-0.979 4.894-1.85 6.883-3.553-0.706-1.55-2.579-0.6-3.839-0.632-4.126 0.238-8.356 2.39-10.258 6.185-0.901 0.413-0.558 2.453 0.429 1.162 2.11-1.36 4.47-2.24 6.79-3.16zm-6.04-4.66c-1.343-0.548-3.168 2.229-1.372 2.429 0.89-0.45 0.84-1.69 1.37-2.43z"/>
	<path id="path1315" fill="#914B19" d="m340.85 522.75c0.06-2.044 0.301-4.069 0.536-4.499s0.389-2.603 0.342-4.829c-0.047-2.225 0.189-3.877 0.523-3.67 0.335 0.207 0.608-0.654 0.608-1.912 0-2.97 2.721-6.411 5.069-6.411 1.441 0 1.74 0.33 1.417 1.565-0.49 1.875-0.403 1.886 3.174 0.391 2.992-1.25 10.684-1.619 10.684-0.512 0 1.153-2.673 3.137-6.517 4.837l-3.721 1.646 2.807 1.905c1.544 1.048 3.511 1.905 4.372 1.905 2.717 0 5.407 3.457 5.407 6.95 0 5.216-5.191 7.874-10.582 5.418-1.626-0.741-2.178-0.724-2.676 0.081-0.477 0.771-1.013 0.808-2.24 0.151-2.013-1.077-6.41-1.133-6.41-0.081 0 0.43-0.653 0.782-1.451 0.782-1.23-0.02-1.43-0.6-1.34-3.73zm18.8 1.33c-1.438-1.589-1.434-1.591 0.816-0.424 1.645 0.853 2.537 0.942 3.279 0.326 1.307-1.085 1.32-6.203 0.02-7.981-1.237-1.692-6.611-3.043-7.35-1.847-0.302 0.489-0.776 0.131-1.144-0.864-0.765-2.069-3.452-2.236-6.177-0.383l-1.935 1.315 1.491-1.706c1.479-1.693 1.476-1.707-0.391-1.774l-1.882-0.067 1.956-0.628c4.434-1.424 12.882-5.413 13.147-6.208 0.424-1.271-4.473-1.048-8.71 0.395-4.569 1.557-7.927 5.465-9.179 10.681-0.836 3.483-0.774 4.078 0.614 5.946 2.059 2.77 5.926 3.166 8.967 0.919l2.253-1.666-0.5 1.993c-0.404 1.61-0.146 2.135 1.344 2.731 1.014 0.406 2.515 0.761 3.334 0.788 1.46 0.05 1.46 0.01 0.05-1.55zm-0.75-7.01c-0.266-0.43-0.131-0.782 0.299-0.782s1 0.352 1.266 0.782 0.131 0.782-0.299 0.782c-0.44 0.01-1.01-0.35-1.27-0.78zm-6.08-1.25c-0.627-0.627 0.194-2.662 1.073-2.662 0.384 0 0.699 0.704 0.699 1.565 0 1.53-0.83 2.05-1.77 1.1zm-6.05-11.07c0-1.65-0.184-1.804-1.174-0.982-0.646 0.536-1.174 1.854-1.174 2.93 0 1.65 0.184 1.804 1.174 0.982 0.64-0.53 1.17-1.85 1.17-2.93z"/>
	<path id="path1313" fill="#6D2F0A" d="m340.85 522.75c0.06-2.044 0.301-4.069 0.536-4.499s0.389-2.603 0.342-4.829c-0.047-2.225 0.189-3.877 0.523-3.67 0.335 0.207 0.608-0.654 0.608-1.912 0-2.97 2.721-6.411 5.069-6.411 1.441 0 1.74 0.33 1.417 1.565-0.49 1.875-0.403 1.886 3.174 0.391 2.992-1.25 10.684-1.619 10.684-0.512 0 1.765-10.629 7.663-12.616 7-0.52-0.173 1.197-1.096 3.816-2.051s5.582-2.42 6.585-3.256l1.824-1.52-3.912-0.009c-7.845-0.018-13.678 4.474-15.274 11.761-1.468 6.703 1.065 9.692 7.821 9.225 1.517-0.105 3.528 0.226 4.468 0.735s2.651 0.926 3.803 0.926h2.094l-1.847-1.611-1.847-1.611 2.156 1.313c2.886 1.758 4.495 0.447 4.495-3.663 0-3.477-2.127-6.161-4.89-6.169-0.968-0.003-2.792-0.685-4.053-1.516-2.113-1.393-2.512-1.42-5.086-0.349-2.332 0.97-2.599 0.978-1.62 0.049 2.103-1.995 5.115-2.209 7.267-0.516 1.088 0.856 2.731 1.556 3.651 1.556 2.813 0 5.514 3.404 5.514 6.95 0 5.252-5.192 7.874-10.66 5.383-1.708-0.778-2.192-0.772-2.46 0.033-0.213 0.64-0.659 0.743-1.236 0.285-0.496-0.394-1.958-0.887-3.249-1.096-1.291-0.208-2.932-0.63-3.646-0.937-0.917-0.395-1.45-0.082-1.813 1.063-0.89 2.84-1.73 1.75-1.62-2.09zm7.43-19.19c-0.052-1.662-0.086-1.671-0.677-0.183-0.622 1.565-0.622 1.565-0.962 0-0.296-1.36-0.514-1.238-1.67 0.939-0.731 1.377-1.32 3.314-1.307 4.303 0.022 1.712 0.135 1.676 2.347-0.756 1.28-1.4 2.3-3.33 2.27-4.3zm11.01 13.51c-0.705-0.456-0.802-0.763-0.242-0.77 0.513-0.007 1.149 0.34 1.415 0.77 0.6 0.97 0.33 0.97-1.17 0zm-6.47-1.25c-0.627-0.627 0.194-2.662 1.073-2.662 0.384 0 0.699 0.704 0.699 1.565 0 1.53-0.83 2.05-1.77 1.1z"/>
	<path id="path1311" fill="#1D2026" d="m355.46 525.75c-0.601-0.381-2.297-0.692-3.769-0.692-1.471 0-2.916-0.248-3.21-0.55-0.541-0.557 4.686-0.134 10.419 0.844l3.13 0.534-1.956-1.712-1.956-1.712 2.156 1.313c2.886 1.758 4.495 0.447 4.495-3.663 0-3.545-2.141-6.164-5.04-6.164-1.05 0-2.13-0.355-2.398-0.79-0.268-0.434-1.777-1.451-3.353-2.259l-2.865-1.47 5.156-2.338c2.836-1.286 5.401-2.734 5.7-3.218 0.808-1.308-6.063-1.121-9.354 0.254-1.492 0.624-2.713 0.958-2.713 0.742s1.221-0.901 2.713-1.525c2.918-1.219 10.588-1.562 10.588-0.473 0 1.153-2.673 3.137-6.517 4.837l-3.721 1.646 2.807 1.905c1.544 1.048 3.511 1.905 4.372 1.905 2.717 0 5.407 3.457 5.407 6.95 0 2.426-0.452 3.464-2.062 4.73-2.13 1.67-6.11 2.12-8.03 0.91zm-9.91-2.07c-1.458-1.168-1.449-1.183 0.242-0.364 0.968 0.469 1.76 1.017 1.76 1.217 0 0.59-0.4 0.42-2-0.86zm-4.19-0.67c-0.034-0.825 0.151-1.287 0.411-1.027s0.288 0.935 0.062 1.5c-0.25 0.62-0.44 0.44-0.47-0.47zm0.21-5.95c0.053-1.285 0.363-2.337 0.691-2.337 0.832 0 0.748 3.726-0.096 4.247-0.37 0.24-0.64-0.62-0.59-1.91zm17.72 0.01c-0.705-0.456-0.802-0.763-0.242-0.77 0.513-0.007 1.149 0.34 1.415 0.77 0.6 0.97 0.33 0.97-1.17 0zm-6.26-2.3c0-0.886 0.352-1.611 0.782-1.611s0.782 0.507 0.782 1.127-0.352 1.345-0.782 1.611c-0.43 0.27-0.78-0.24-0.78-1.13zm-11.38-3.12c-0.017-1.261 0.248-2.12 0.589-1.91 0.34 0.21 0.619-0.655 0.619-1.924s0.725-3.138 1.611-4.154l1.611-1.847-1.321 2.168c-0.935 1.534-1.193 3.124-0.883 5.436 0.285 2.129 0.188 2.873-0.278 2.135-0.558-0.882-0.719-0.743-0.729 0.628-0.02 2.63-1.18 2.12-1.22-0.54zm4.86-3.97c0.931-1.076 1.851-2.836 2.045-3.912l0.353-1.956 0.107 2.015c0.069 1.307-0.649 2.682-2.045 3.912l-2.152 1.897 1.68-1.95z"/>
	<path id="path1309" fill="#501200" d="m349.9 524.9c-1.821-0.583-1.838-0.632-0.242-0.704 0.943-0.043 1.932 0.274 2.198 0.704s0.375 0.747 0.242 0.704c-0.14-0.04-1.12-0.36-2.2-0.7zm-4.35-1.22c-1.458-1.168-1.449-1.183 0.242-0.364 0.968 0.469 1.76 1.017 1.76 1.217 0 0.59-0.4 0.42-2-0.86zm-4.19-0.67c-0.034-0.825 0.151-1.287 0.411-1.027s0.288 0.935 0.062 1.5c-0.25 0.62-0.44 0.44-0.47-0.47zm0.25-6.28c0-1.048 0.282-1.731 0.626-1.519 0.815 0.504 0.815 3.424 0 3.424-0.35 0.01-0.63-0.85-0.63-1.9zm0.04-5.15c-0.016-1.221 0.249-2.047 0.59-1.837 0.34 0.21 0.619-0.655 0.619-1.924s0.725-3.138 1.611-4.154l1.611-1.847-1.321 2.168c-0.935 1.534-1.193 3.124-0.883 5.436 0.285 2.129 0.188 2.873-0.278 2.135-0.599-0.946-0.719-0.915-0.729 0.19-0.02 2.31-1.19 2.15-1.22-0.17zm15.68 1.57c-0.268-0.434-1.777-1.451-3.353-2.259l-2.865-1.47 5.156-2.338c2.836-1.286 5.401-2.734 5.7-3.218 0.808-1.308-6.063-1.121-9.354 0.254-1.492 0.624-2.713 0.958-2.713 0.742s1.221-0.901 2.713-1.525c2.918-1.219 10.588-1.562 10.588-0.473 0 1.158-2.678 3.139-6.569 4.86l-3.773 1.669 2.347 1.427c2.178 1.324 3.905 3.119 3.001 3.119-0.24 0.01-0.63-0.34-0.9-0.78zm-10.82-5.47c0.931-1.076 1.851-2.836 2.045-3.912l0.353-1.956 0.107 2.015c0.069 1.307-0.649 2.682-2.045 3.912l-2.152 1.897 1.68-1.95z"/>
</g>
<metadata><rdf:RDF><cc:Work><dc:format>image/svg+xml</dc:format><dc:type rdf:resource="http://purl.org/dc/dcmitype/StillImage"/><cc:license rdf:resource="http://creativecommons.org/licenses/publicdomain/"/><dc:publisher><cc:Agent rdf:about="http://openclipart.org/"><dc:title>Openclipart</dc:title></cc:Agent></dc:publisher><dc:title>eMule icon</dc:title><dc:date>2007-12-08T16:41:39</dc:date><dc:description>application, application, clip art, clipart, emule, emule, externalsource, icon, icon, image, media, png, program, program, public domain, software, software, svg, </dc:description><dc:source>http://openclipart.org/detail/9602/emule-icon-by-anonymous</dc:source><dc:creator><cc:Agent><dc:title>Anonymous</dc:title></cc:Agent></dc:creator><dc:subject><rdf:Bag><rdf:li>application</rdf:li><rdf:li>clip art</rdf:li><rdf:li>clipart</rdf:li><rdf:li>emule</rdf:li><rdf:li>externalsource</rdf:li><rdf:li>icon</rdf:li><rdf:li>image</rdf:li><rdf:li>media</rdf:li><rdf:li>png</rdf:li><rdf:li>program</rdf:li><rdf:li>public domain</rdf:li><rdf:li>software</rdf:li><rdf:li>svg</rdf:li></rdf:Bag></dc:subject></cc:Work><cc:License rdf:about="http://creativecommons.org/licenses/publicdomain/"><cc:permits rdf:resource="http://creativecommons.org/ns#Reproduction"/><cc:permits rdf:resource="http://creativecommons.org/ns#Distribution"/><cc:permits rdf:resource="http://creativecommons.org/ns#DerivativeWorks"/></cc:License></rdf:RDF></metadata></svg>
